<svg width="160" height="31" viewBox="0 0 160 31" fill="none" xmlns="http://www.w3.org/2000/svg">
<path d="M10.1361 30.4899H4.10687V15.4605H0V10.5672H4.10687V7.08525C4.10687 2.95914 5.92328 0 11.9359 0C13.2077 0 15.2042 0.256289 15.2042 0.256289V4.80006H13.107C10.9704 4.80006 10.1361 5.44992 10.1361 7.2467V10.5672H15.124L14.6799 15.4605H10.1361V30.4899Z" fill="#8A8A8A"/>
<path d="M23.9695 10.1763C23.8819 10.1763 23.7913 10.1795 23.7019 10.1817C18.1114 10.1817 15.5537 14.3868 15.5537 20.3561C15.5537 27.8758 18.8715 30.8854 23.7456 30.8854C26.5342 30.8854 28.3663 29.7117 29.4799 27.5212V30.4922H35.2143V10.5695H29.4799V13.6332C28.5708 11.662 26.6874 10.1995 23.9695 10.1763ZM25.4277 14.8839C27.7758 14.8839 29.185 16.5218 29.185 19.3075L29.1905 22.1528C29.1905 24.0304 28.0265 26.2269 25.4277 26.2269C21.4324 26.2269 21.5393 21.913 21.5393 20.4762C21.5393 15.6431 23.6678 14.8839 25.4277 14.8839H25.4277Z" fill="#8A8A8A"/>
<path d="M37.5303 20.5316C37.5303 18.1107 37.4144 10.1891 47.7351 10.1891C51.878 10.1891 53.6079 11.5065 53.6079 11.5065L52.2174 15.8189C52.2174 15.8189 50.4898 14.8676 48.2386 14.8676C45.3552 14.8676 43.5154 16.539 43.5154 19.4799L43.5187 21.5887C43.5187 24.4148 45.2937 26.3011 48.2445 26.3011C50.2953 26.3011 52.1856 25.3407 52.1856 25.3407L53.5726 29.5633C53.5726 29.5633 51.9908 30.8888 47.7639 30.8888C37.9371 30.8888 37.5303 23.7815 37.5303 20.5316Z" fill="#8A8A8A"/>
<path d="M87.2309 10.1817C92.8214 10.1817 95.4194 14.3868 95.4194 20.356C95.4194 27.8757 92.1016 30.8853 87.2275 30.8853C84.4389 30.8853 82.3774 29.7117 81.2638 27.5212V30.4921L75.6016 30.4899V0.60582L81.6133 0.081543V13.3633C82.481 11.0397 85.3325 10.1817 87.2309 10.1817ZM85.5454 14.8838C83.1973 14.8838 81.6133 16.5217 81.6133 19.3075L81.6079 22.1528C81.6043 24.0303 82.7048 26.2269 85.5455 26.2269C89.5407 26.2269 89.4339 21.913 89.4339 20.4762C89.4339 15.6431 87.3053 14.8838 85.5455 14.8838H85.5454Z" fill="#8A8A8A"/>
<path d="M64.0389 10.1981C57.6981 10.1981 54.3506 13.6553 54.3506 19.799V20.9404C54.3506 28.9143 59.0516 30.9673 64.656 30.9673C70.1036 30.9673 72.5694 29.4436 72.5694 29.4436L71.4444 25.3859C71.4444 25.3859 68.5439 26.6202 65.3769 26.6202C62.0937 26.6202 60.6816 25.7832 60.3198 22.628H73.05V19.373C73.05 12.7088 69.293 10.1981 64.0389 10.1981ZM64.1918 14.2613C66.3866 14.2613 67.8088 15.6072 67.7307 18.7286H60.3307C60.4591 15.4432 61.9928 14.2613 64.1918 14.2613Z" fill="#8A8A8A"/>
<path d="M107.407 10.1707C100.895 10.1707 97.4673 13.8401 97.4673 20.416C97.4673 29.4383 103.376 30.8907 107.418 30.8907C113.334 30.8907 117.27 27.7056 117.27 20.4979C117.27 12.9959 112.844 10.1707 107.407 10.1707ZM107.325 14.9001C110.188 14.9001 111.323 17.043 111.323 19.4821V21.5792C111.323 24.5343 109.735 26.2432 107.314 26.2432C105.05 26.2432 103.458 24.6445 103.458 21.5792V19.4821C103.458 16.213 105.352 14.9001 107.325 14.9001Z" fill="#8A8A8A"/>
<path d="M129.247 10.1707C122.735 10.1707 119.307 13.8401 119.307 20.416C119.307 29.4383 125.216 30.8907 129.258 30.8907C135.174 30.8907 139.11 27.7056 139.11 20.4979C139.11 12.9959 134.684 10.1707 129.247 10.1707ZM129.165 14.9001C132.028 14.9001 133.162 17.043 133.162 19.4821V21.5792C133.162 24.5343 131.575 26.2432 129.154 26.2432C126.89 26.2432 125.298 24.6445 125.298 21.5792V19.4821C125.298 16.213 127.192 14.9001 129.165 14.9001Z" fill="#8A8A8A"/>
<path d="M141.381 30.4899V0.60584L147.411 0.081543V20.1117L153.392 10.5672H159.76L153.52 20.4525L160 30.4899H153.615L147.411 20.7437V30.4899H141.381Z" fill="#8A8A8A"/>
</svg>
