<svg width="96" height="37" viewBox="0 0 96 37" fill="none" xmlns="http://www.w3.org/2000/svg">
<path d="M92.516 13.9386C90.2657 11.6896 87.313 10.4508 84.2 10.4508C81.9235 10.4508 79.6361 11.2988 78.3788 12.136C75.776 13.8697 73.6368 15.7515 69.7856 20.7272V24.3038C73.0532 20.0472 76.1451 16.6928 78.4925 14.848C80.0352 13.6091 82.2242 12.8416 84.2 12.8416C89.2995 12.8416 93.6099 17.15 93.6099 22.2521V24.4047C93.6099 26.9258 92.6201 29.2942 90.8161 31.0771C89.0307 32.8434 86.6789 33.8159 84.2 33.8159C80.0091 33.8159 76.3201 30.9392 75.3175 27.0107L73.633 29.0528C74.8616 33.169 79.299 36.206 84.2 36.206C87.313 36.206 90.2657 34.9653 92.516 32.7208C94.7631 30.4717 96 27.519 96 24.4047V22.2521C96 19.1391 94.7631 16.1851 92.516 13.9386ZM41.3152 12.8416C42.9391 12.8416 44.3433 13.1902 45.6108 13.908C46.2066 13.1634 46.8081 12.5587 47.2564 12.1111C45.9154 11.0868 43.6447 10.4508 41.3152 10.4508C37.9953 10.4508 34.9806 11.6481 32.828 13.8237C30.6914 15.9795 29.5113 18.9724 29.5113 22.2521V36.206H31.9014V22.2521C31.9014 16.7113 35.7724 12.8416 41.3152 12.8416ZM64.029 36.206V22.2521C64.029 17.9622 60.6682 14.6008 56.3777 14.6008C54.3796 14.6008 52.4722 15.4099 51.0022 16.878C49.5354 18.3447 48.727 20.2553 48.727 22.2521V24.4047C48.727 28.5509 52.2321 32.0566 56.3777 32.0566C57.5143 32.0566 59.0615 31.777 60.0085 30.9998V28.4737C59.0782 29.2214 57.7276 29.6665 56.3777 29.6665C53.4288 29.6665 51.1172 27.3536 51.1172 24.4047V22.2521C51.1172 19.3026 53.4288 16.9935 56.3777 16.9935C59.3291 16.9935 61.6388 19.3026 61.6388 22.2521V36.206H64.029ZM0 20.8671V21.6391C0 25.7834 1.57215 29.6505 4.42845 32.5266C7.27773 35.3963 11.097 36.9742 15.1825 36.9742C18.4673 36.9742 21.376 36.231 23.8313 34.7706C25.8555 33.5637 26.7527 32.344 26.83 32.2323V19.3652H14.6021V21.7566H24.4398V31.4896L24.4302 31.4979C23.2783 32.6518 20.5439 34.5822 15.1825 34.5822C11.6889 34.5822 8.4546 33.2508 6.06956 30.8274C3.69665 28.4156 2.39015 25.1518 2.39015 21.6391V20.8671C2.39015 17.5504 3.88631 14.2413 6.49293 11.7931C9.15447 9.29818 12.6219 7.92271 16.2585 7.92271C19.6499 7.92271 22.0126 8.43739 23.9104 9.58681V6.9042C21.9347 6.06385 19.5733 5.68645 16.2585 5.68645C7.44631 5.68645 0 12.6398 0 20.8671ZM41.3152 16.9935C42.2219 16.9935 42.9901 17.1436 43.6019 17.4412C43.8995 16.6992 44.2047 16.0874 44.6498 15.3448C43.9997 14.8799 42.4525 14.6008 41.3152 14.6008C36.9538 14.6008 33.6639 17.8901 33.6639 22.2521V36.206H36.054V22.2521C36.054 19.1544 38.2181 16.9935 41.3152 16.9935ZM23.9104 14.187V11.3607C21.7476 10.2005 19.3875 9.68323 16.2585 9.68323C13.0657 9.68323 10.0389 10.855 7.73238 12.9776C5.42397 15.1078 4.15131 17.9099 4.15131 20.8671V21.6391C4.15131 27.807 9.09891 32.8242 15.1825 32.8242C20.1308 32.8242 22.1621 31.2048 22.6793 30.6927V23.5165H14.6021V25.906H20.443V29.5017L20.422 29.5088C19.6704 29.8083 18.1097 30.4328 15.1825 30.4328C12.862 30.4328 10.6909 29.5305 9.06763 27.8875C7.43673 26.2387 6.54147 24.0184 6.54147 21.6391V20.8671C6.54147 16.1008 10.9916 12.0747 16.2585 12.0747C19.9022 12.0747 22.0567 12.6647 23.9104 14.187ZM80.3334 18.6902C81.412 17.6142 82.8238 16.9935 84.2 16.9935C87.1489 16.9935 89.4617 19.3026 89.4617 22.2521V24.4047C89.4617 27.3536 87.1489 29.6665 84.2 29.6665C82.7721 29.6665 81.3928 28.8817 80.3124 27.4634C79.3545 26.2093 78.7338 24.5126 78.638 22.9877L76.7026 25.3511C77.0825 27.1589 78.0276 28.8913 79.3628 30.109C80.7408 31.3632 82.4586 32.0566 84.2 32.0566C88.4202 32.0566 91.8506 28.6237 91.8506 24.4047V22.2521C91.8506 20.2553 91.0422 18.3447 89.5754 16.878C88.1061 15.4099 86.198 14.6008 84.2 14.6008C82.9369 14.6008 80.9279 15.0536 78.534 17.2062L78.5257 17.2145C77.8852 17.8556 76.3807 19.3601 75.4657 20.4328C73.9267 22.1116 71.6905 24.6461 69.7856 27.1818V30.9143C71.8999 28.1978 73.117 26.6761 75.1042 24.3811C76.8839 22.3045 79.087 19.7809 80.3334 18.6902ZM44.5776 24.4047C44.5776 27.519 45.8158 30.4717 48.0629 32.7208C50.3119 34.9653 53.2653 36.206 56.3777 36.206C57.6963 36.206 59.0507 35.9244 60.0085 35.4525V33.0643C58.8898 33.533 57.5379 33.8159 56.3777 33.8159C51.2781 33.8159 46.9665 29.5069 46.9665 24.4047V22.2521C46.9665 17.15 51.2781 12.8416 56.3777 12.8416C58.9134 12.8416 61.2838 13.8122 63.0519 15.5804C64.8182 17.3467 65.7888 19.7164 65.7888 22.2521V36.206H68.179V21.7923C68.0302 18.747 66.7301 15.8978 64.5187 13.7675C62.3042 11.6289 59.4096 10.4508 56.3777 10.4508C53.2653 10.4508 50.3119 11.6896 48.0629 13.9386C45.8158 16.1851 44.5776 19.1391 44.5776 22.2521V24.4047ZM72.2466 15.1513C72.9784 14.2726 73.7358 13.3799 74.6336 12.6264V3.02516e-05H72.2466V15.1513ZM76.3948 11.6481V3.02516e-05H78.7836V10.0089C78.1349 10.3365 77.2281 10.9597 76.3948 11.6481Z" fill="#8A8A8A"/>
</svg>
