<svg width="160" height="37" viewBox="0 0 160 37" fill="none" xmlns="http://www.w3.org/2000/svg">
<path d="M119.413 9.86329C117.408 9.86329 115.483 10.6937 114.086 12.1519V4.43544C114.086 4.1924 113.883 3.98987 113.64 3.98987H110.927C110.683 3.98987 110.481 4.1924 110.481 4.43544V25.2962C110.481 25.5392 110.683 25.7418 110.927 25.7418H113.64C113.883 25.7418 114.086 25.5392 114.086 25.2962V23.8582C115.483 25.3165 117.387 26.1468 119.413 26.1468C123.646 26.1468 127.068 22.5013 127.068 18.0051C127.068 13.5089 123.646 9.86329 119.413 9.86329ZM118.785 22.8861C116.213 22.8861 114.127 20.7392 114.106 18.0658V17.9443C114.147 15.2709 116.213 13.124 118.785 13.124C121.377 13.124 123.463 15.3114 123.463 18.0051C123.463 20.6987 121.357 22.8861 118.785 22.8861Z" fill="#8A8A8A"/>
<path d="M137.053 9.86328C132.476 9.86328 128.77 13.5089 128.77 18.0051C128.77 22.5013 132.476 26.1468 137.053 26.1468C141.63 26.1468 145.337 22.5013 145.337 18.0051C145.337 13.5089 141.63 9.86328 137.053 9.86328ZM137.033 22.8861C134.44 22.8861 132.354 20.6987 132.354 18.0051C132.354 15.3114 134.461 13.124 137.033 13.124C139.605 13.124 141.711 15.3114 141.711 18.0051C141.711 20.6987 139.605 22.8861 137.033 22.8861Z" fill="#8A8A8A"/>
<path d="M86.4001 10.2683H83.6862C83.4431 10.2683 83.2406 10.4709 83.2406 10.7139V12.1519C81.8431 10.6937 79.9393 9.86328 77.914 9.86328C73.6811 9.86328 70.2583 13.5089 70.2583 18.0051C70.2583 22.5013 73.6811 26.1468 77.914 26.1468C79.9191 26.1468 81.8431 25.3164 83.2406 23.8582V25.2962C83.2406 25.5392 83.4431 25.7418 83.6862 25.7418H86.4001C86.6431 25.7418 86.8456 25.5392 86.8456 25.2962V10.7139C86.8456 10.4709 86.6431 10.2683 86.4001 10.2683ZM78.5418 22.8861C75.9494 22.8861 73.8634 20.6987 73.8634 18.0051C73.8634 15.3114 75.9697 13.124 78.5418 13.124C81.114 13.124 83.2001 15.2709 83.2203 17.9443V18.0658C83.2001 20.7392 81.114 22.8861 78.5418 22.8861Z" fill="#8A8A8A"/>
<path d="M99.9492 9.86328C97.9442 9.86328 96.0201 10.6937 94.6226 12.1519V10.7139C94.6226 10.4709 94.4201 10.2683 94.1771 10.2683H91.4632C91.2201 10.2683 91.0176 10.4709 91.0176 10.7139V31.5747C91.0176 31.8177 91.2201 32.0202 91.4632 32.0202H94.1771C94.4201 32.0202 94.6226 31.8177 94.6226 31.5747V23.8582C96.0201 25.3164 97.9239 26.1468 99.9492 26.1468C104.182 26.1468 107.605 22.5013 107.605 18.0051C107.605 13.5089 104.182 9.86328 99.9492 9.86328ZM99.3214 22.8861C96.7492 22.8861 94.6631 20.7392 94.6429 18.0658V17.9443C94.6834 15.2709 96.7492 13.124 99.3214 13.124C101.914 13.124 104 15.3114 104 18.0051C104 20.6987 101.914 22.8861 99.3214 22.8861Z" fill="#8A8A8A"/>
<path d="M62.1366 9.86329C60.1113 9.88355 58.2682 11.0582 57.3974 12.9013C56.405 11.0177 54.4201 9.84304 52.2936 9.86329C50.6328 9.86329 49.0733 10.6734 48.1012 12.0101V10.7139C48.1012 10.4709 47.8986 10.2684 47.6556 10.2684H44.9417C44.6986 10.2684 44.4961 10.4709 44.4961 10.7139V25.2962C44.4961 25.5392 44.6986 25.7418 44.9417 25.7418H47.6556C47.8986 25.7418 48.1012 25.5392 48.1012 25.2962V16.5671C48.2024 14.6228 49.5594 13.0633 51.2201 13.0633C52.9417 13.0633 54.3796 14.5013 54.3796 16.3848V25.2962C54.3796 25.5392 54.5822 25.7418 54.8252 25.7418H57.5594C57.8024 25.7418 58.005 25.5392 58.005 25.2962L57.9847 16.2228C58.2277 14.4405 59.5037 13.0633 61.0632 13.0633C62.7847 13.0633 64.2227 14.5013 64.2227 16.3848V25.2962C64.2227 25.5392 64.4252 25.7418 64.6682 25.7418H67.4024C67.6455 25.7418 67.848 25.5392 67.848 25.2962L67.8277 15.2709C67.8277 12.2734 65.2758 9.86329 62.1366 9.86329Z" fill="#8A8A8A"/>
<path d="M159.939 25.1139L155.24 17.9645L159.898 10.8759C160.02 10.6936 159.959 10.4303 159.777 10.3088C159.716 10.2683 159.635 10.248 159.554 10.248H156.415C156.172 10.248 155.949 10.3696 155.828 10.5721L153.093 15.1696L150.359 10.5924C150.238 10.3898 150.015 10.2683 149.772 10.2683H146.633C146.41 10.2683 146.228 10.4506 146.228 10.6734C146.228 10.7544 146.248 10.8354 146.288 10.8961L150.947 17.9848L146.248 25.1341C146.126 25.3164 146.187 25.5797 146.369 25.7012C146.43 25.7417 146.511 25.762 146.592 25.762H149.731C149.974 25.762 150.197 25.6405 150.319 25.4379L153.114 20.7797L155.909 25.4379C156.03 25.6405 156.253 25.762 156.496 25.762H159.595C159.817 25.762 160 25.5797 160 25.3569C160 25.2759 159.979 25.1949 159.939 25.1139Z" fill="#8A8A8A"/>
<path d="M18.0051 0C8.06076 0 0 8.06076 0 18.0051C0 27.9494 8.06076 36.0101 18.0051 36.0101C27.9494 36.0101 36.0101 27.9494 36.0101 18.0051C36.0101 8.06076 27.9494 0 18.0051 0ZM26.5519 22.4203C20.3949 28.5772 9.39747 26.6127 9.39747 26.6127C9.39747 26.6127 7.41266 15.6354 13.5899 9.45823C17.0127 6.03544 22.6835 6.17722 26.2684 9.74177C29.8532 13.3063 29.9747 18.9975 26.5519 22.4203Z" fill="#8A8A8A"/>
<path d="M20.0709 10.5519L18.3089 14.1772L14.6836 15.9392L18.3089 17.7012L20.0709 21.3266L21.833 17.7012L25.4583 15.9392L21.833 14.1772L20.0709 10.5519Z" fill="#8A8A8A"/>
</svg>
